<svg xmlns="http://www.w3.org/2000/svg" viewBox="0 0 200 107.314"><defs><style>.cls-1{fill:#6d41ff;}</style></defs><title>Thanos-logo_full</title><g id="Layer_2" data-name="Layer 2"><g id="Layer_1-2" data-name="Layer 1"><path class="cls-1" d="M75.761,0V56.825h40.246a16.579,16.579,0,0,0,16.578-16.579V0Zm44.293,35.82h2.121v2.121h-2.121Zm-.667-9.131h3.446v3.447h-3.446Zm-.53-9h4.507V22.2h-4.507Zm-7.276,26.6H113.7V46.41h-2.121Zm-.663-9.239h3.447V38.5h-3.447Zm-.53-8.891H114.9v4.507h-4.507Zm.53-4.492V18.221h3.447v3.446ZM94.644,44.289h2.121V46.41H94.644Zm-.663-9.131h3.447V38.6H93.981Zm.663-5.685V27.352h2.121v2.121Zm-.663-11.252h3.447v3.446H93.981ZM86.175,44.289H88.3V46.41H86.175Zm0-8.469H88.3v2.121H86.175Zm-.662-9.131h3.446v3.447H85.513Zm-.531-9H89.49V22.2H84.982ZM83,7.241h42.342V15.71H108.407V49.584H99.939V15.71H83Z"/><path class="cls-1" d="M0,63.485H33.223v6.661H20.278v36.491H12.945V70.146H0Z"/><path class="cls-1" d="M46.745,76.43H65.728v30.207H58.7V83.091H46.745v23.546H39.718V63.485h7.027Z"/><path class="cls-1" d="M75.8,82.594V76.43h22.13v30.207H84.119c-6.721,0-10.972-3.82-10.972-9.618S77.709,87.4,84.119,87.4h6.906V82.594Zm15.228,18V93.446H84c-2.715,0-4.5,1.109-4.5,3.573s1.787,3.574,4.5,3.574Z"/><path class="cls-1" d="M106.575,76.43h26.01v30.207h-7.027V83.091H113.6v23.546h-7.027Z"/><path class="cls-1" d="M155.293,75.692A15.812,15.812,0,1,1,139.7,91.533,15.479,15.479,0,0,1,155.293,75.692Zm0,25.273c4.869,0,8.382-3.946,8.382-9.432s-3.513-9.431-8.382-9.431c-4.934,0-8.448,3.945-8.448,9.431S150.359,100.965,155.293,100.965Z"/><path class="cls-1" d="M185.76,94.244c-5.667-1.416-9.185-4.312-9.185-9.552,0-5.612,4.688-9,11.037-9a14.869,14.869,0,0,1,11.279,5.055l-4.377,4.808a8.763,8.763,0,0,0-7.087-3.824c-2.59,0-4.131,1.3-4.131,2.836,0,1.48,1.3,2.469,2.961,2.835L191,88.512c5.18,1.234,9,4.131,9,9.431,0,5.24-4.066,9.371-12.016,9.371a15.272,15.272,0,0,1-12.579-5.857l4.437-4.558a10.48,10.48,0,0,0,8.694,4.377c3.639,0,4.683-1.606,4.683-3.087,0-1.29-.8-2.279-3.448-2.956Z"/></g></g></svg>