<?xml version="1.0" encoding="UTF-8"?><svg id="Layer_1" xmlns="http://www.w3.org/2000/svg" viewBox="0 0 1121 710"><defs><style>.cls-1{fill:#cf6428;}.cls-1,.cls-2,.cls-3,.cls-4,.cls-5,.cls-6,.cls-7,.cls-8{stroke-width:0px;}.cls-1,.cls-2,.cls-3,.cls-4,.cls-5,.cls-6,.cls-8{fill-rule:evenodd;}.cls-2{fill:#fff;}.cls-3{fill:#f17f21;}.cls-4{fill:#b54626;}.cls-5{fill:#909294;}.cls-6{fill:#babbbd;}</style></defs><path class="cls-2" d="m568.18758,46.45798l85.51379,49.38549,85.51381,49.36524v197.48122l-85.51381,49.36523-85.51381,49.3855-85.5138-49.3855-85.5138-49.36525v-197.4812l85.5138-49.36524,85.51382-49.38548Z"/><path class="cls-1" d="m601.56327,49.77733l59.03994,34.10432c17.95284,10.34261,43.65759,24.42962,58.69587,32.38392,24.49036,12.91309,33.84122,28.21449,33.71977,59.46498v68.18841c0,20.72571.66794,50.01292,1.27511,66.974,1.01198,27.74898-7.50903,43.45518-34.6508,58.99948l-59.03994,34.14481c-17.95284,10.36284-42.98967,25.5833-57.38027,34.59007-23.51882,14.7347-41.3907,15.22046-68.41104-.50599l-59.06021-34.08412c-17.95284-10.36284-43.65758-24.44987-58.69586-32.38393-24.49034-13.01428-33.82096-28.23474-33.71976-59.5257v-68.16816c0-20.74594-.66792-50.01292-1.35608-66.99424-.93104-27.74897,7.58998-43.45517,34.73176-58.99946l59.03995-34.08408c17.95284-10.3831,42.98966-25.54282,57.38027-34.61032,23.53907-14.73469,41.3907-15.22044,68.43129.50601Zm-33.37569,25.64402l-72.98527,42.13958v84.25893l36.55335-21.06981,36.43192-21.06979,36.43192,21.06979,36.43192,21.06979,72.86382-42.13958-72.86384-42.11934-72.86382-42.13958Zm-145.9503,151.67821l58.37202-33.69952v-67.41929l-58.37202,33.69952v67.41929Zm72.96503-25.27969l-72.86383,42.13958v84.25892l72.96503,42.11935,72.88407,42.20028,72.96504-42.1396,72.86384-42.11935v-84.31963l-72.86384,42.11935-36.43192,21.0698-36.53312,21.0698-36.43192-21.0698-36.43192-21.0698v-84.25892s-.12144,0-.12143.00002Z"/><path class="cls-3" d="m601.56327,49.77733l59.03994,34.08408c17.95284,10.36286,43.65759,24.44986,58.69587,32.38392,24.49036,12.93333,33.84122,28.23473,33.71977,59.48522v68.18841c0,20.72571.66794,50.01292,1.27511,66.974.54649,14.93708-1.67992,26.31194-8.09597,36.18904l-32.38393-18.80291h.18218v-84.31963l-72.86384,42.03837-72.45903-42.22055-.34408-83.8946,36.29024,20.86739,36.43192,21.06979,72.86384-42.13958-72.86384-42.11934-72.86384-42.13958-.16195-37.32249c10.2819.48576,20.84715,4.31111,33.53761,11.67845Z"/><path class="cls-4" d="m746.84566,346.15096c-5.44453,8.84486-14.16798,16.33364-27.20249,23.78195l-59.03994,34.10431c-17.95284,10.36284-42.98967,25.5833-57.38027,34.59007-23.51882,14.7347-41.3907,15.22046-68.41104-.50599l-59.06021-34.08408c-17.95284-10.36284-43.65758-24.44987-58.69586-32.38393-13.39885-7.10422-22.26395-14.87636-27.54657-25.54282l32.72801-18.58026v.78935l72.96503,42.11935,72.98527,42.0991,72.96504-42.1396,72.86384-42.11935v-.74885l32.72802,18.72196.10118-.1012Zm-178.65807-102.19154l-72.98527,41.73479v.38456l36.43192,21.0698,36.43192,21.0698,36.43192-21.0698,36.43192-21.0698.34408-.2024-73.08649-41.91694Z"/><path class="cls-6" d="m422.23728,227.09956l58.37202-33.69952v-67.41929l-58.37202,33.69952v67.41929Z"/><path class="cls-5" d="m422.23728,227.09956l58.37202-33.69952v-67.41929s-58.37202,101.11879-58.37202,101.11881Z"/><path class="cls-7" d="m78.14286,557.52691h11.74093v93.58678h-11.74093v-93.58678Z"/><path class="cls-8" d="m125.04269,651.11369v-93.0652h6.07802l60.40775,69.55141v-69.55141h11.57063v93.0652h-5.90772l-60.57807-69.55141v69.55141h-11.57061Zm113.01307,0v-93.0652h73.21312v10.69776h-61.64248v27.28195h37.2878v10.70841h-37.2878v44.37709s-11.57063,0-11.57063-.00001Zm103.70973-51.62601h41.09856c5.84385,0,10.28262-1.29863,13.27376-3.88525,2.9911-2.58662,4.51328-6.38673,4.51328-11.36836s-1.49023-8.69659-4.51328-11.4003c-3.02305-2.70371-7.22765-4.0875-12.69894-4.0875h-41.67338s0,30.74143,0,30.74142Zm-11.55995,51.626v-93.06519h53.41431c9.09044,0,16.21694,2.28858,21.37423,6.87637,5.15729,4.58247,7.74391,10.91065,7.74923,18.98986.32464,13.05553-9.10639,24.31212-22.01291,26.28136l23.24769,40.9176h-12.77345l-23.24769-40.726h-36.19145v40.74729s-11.55995-.02129-11.55995-.0213Zm120.70906-35.91466h40.9389l-20.53332-41.21565-20.40558,41.21565Zm-30.01759,35.91468l45.61184-93.0652h9.5801l46.13342,93.0652h-12.53928l-12.63507-25.03596h-51.43442l-12.30507,25.03596h-12.41154Zm196.92391-29.69827l9.32461,6.90831c-3.95979,7.77051-10.04845,14.24771-17.55287,18.68117-7.68536,4.41748-16.42451,6.67944-25.29142,6.5251-13.93904,0-25.45108-4.59312-34.54156-13.78468-9.0904-9.19155-13.63036-20.84733-13.61436-34.96731,0-14.19449,4.55052-25.86623,13.64627-35.02053,9.09576-9.1543,20.59188-13.74742,34.47764-13.78468,8.19626-.10645,16.28613,1.83618,23.5457,5.6416,7.06799,3.76817,13.01827,9.32461,17.26546,16.11583l-9.69721,6.90831c-2.84743-5.49258-7.24357-10.0378-12.63503-13.07149-5.62567-3.16675-11.9911-4.79004-18.447-4.71553-10.45296,0-19.10693,3.58721-25.96206,10.76163-6.85505,7.17442-10.2773,16.23292-10.27194,27.16486,0,10.96387,3.42225,20.02238,10.27194,27.1755,6.84977,7.15313,15.50374,10.69776,25.96206,10.64454,6.87105.11709,13.625-1.75635,19.44761-5.40743,5.98755-3.93848,10.84148-9.37783,14.07206-15.77521h.00008Zm37.23461,29.69826v-93.0652h11.57059v82.36743h60.7803v10.69776h-72.35089Zm131.25781-8.46241c10.4476,0,19.10693-3.54995,25.98334-10.64454,6.87641-7.09459,10.29858-16.15309,10.27194-27.17551,0-10.98516-3.41689-20.08624-10.24002-27.21809-6.82314-7.13184-15.5091-10.76163-26.01525-10.76163s-19.1602,3.59785-25.99398,10.76163c-6.83378,7.16378-10.27194,16.23292-10.27194,27.16486s3.42753,20.03302,10.27194,27.17551c6.84441,7.14249,15.54102,10.64454,25.99398,10.64454v.05322Zm0,10.87872c-13.96032,0-25.46708-4.59312-34.53092-13.78468-9.06384-9.19155-13.59836-20.84733-13.61436-34.96731,0-14.19449,4.55588-25.86623,13.66755-35.02053,9.11175-9.1543,20.59188-13.74742,34.44573-13.78468,13.93904,0,25.48835,4.61441,34.64794,13.8379,9.15959,9.2235,13.73674,20.87926,13.73146,34.96731,0,14.13595-4.56652,25.79172-13.69955,34.96731-9.13303,9.17559-20.69298,13.76871-34.67994,13.78468h.03208Zm85.02856-95.48151v60.25873c0,9.64395,1.81491,16.12115,5.43938,19.42628,3.62982,3.27851,10.74037,4.91778,21.38491,4.91778s17.72317-1.63926,21.28908-4.91778c3.56591-3.27851,5.3861-9.78233,5.3861-19.42628v-60.25873h11.57059v63.36694c0,11.45353-2.96982,19.67643-8.9201,24.66339-5.945,4.98697-15.74859,7.47246-29.41086,7.45117-13.64627,0-23.44995-2.4855-29.4215-7.45117-5.96628-4.96568-8.94137-13.18859-8.9201-24.66339v-63.36694h11.60251Zm137.96384,10.69776h-28.34643v71.65903h28.34643c11.45348,0,20.49077-3.19336,27.04778-9.58008,6.55701-6.38673,9.87815-15.13653,9.87815-26.1004,0-10.79356-3.35306-19.4795-10.04845-26.04718-6.67411-6.58897-15.65812-9.87813-26.87747-9.87813v-.05323Zm0-10.64454c14.64688,0,26.44104,4.327,35.39306,12.97569,8.94673,8.64869,13.42806,19.90528,13.44406,33.76447,0,13.98692-4.40685,25.20095-13.20984,33.63674-8.80835,8.4358-20.68235,12.65104-35.62727,12.63507h-39.91702v-93.0652l39.91702.05322Z"/></svg>