<svg xmlns="http://www.w3.org/2000/svg" width="231" height="41" fill="none" viewBox="0 0 231 41">
    <path fill="#fff" fill-rule="evenodd" d="M18.6.826l8.45 4.88 8.45 4.878v19.514l-8.45 4.878-8.45 4.88-8.45-4.88-8.45-4.878V10.584l8.45-4.878L18.6.826z" clip-rule="evenodd"/>
    <path fill="#D16323" fill-rule="evenodd" d="M21.898 1.154l5.834 3.37c1.774 1.022 4.314 2.414 5.8 3.2 2.42 1.276 3.344 2.788 3.332 5.876v6.738c0 2.048.066 4.942.126 6.618.1 2.742-.742 4.294-3.424 5.83l-5.834 3.374c-1.774 1.024-4.248 2.528-5.67 3.418-2.324 1.456-4.09 1.504-6.76-.05L9.466 36.16c-1.774-1.024-4.314-2.416-5.8-3.2-2.42-1.286-3.342-2.79-3.332-5.882v-6.736c0-2.05-.066-4.942-.134-6.62-.092-2.742.75-4.294 3.432-5.83l5.834-3.368c1.774-1.026 4.248-2.524 5.67-3.42 2.326-1.456 4.09-1.504 6.762.05zM18.6 3.688l-7.212 4.164v8.326L15 14.096l3.6-2.082 3.6 2.082 3.6 2.082 7.2-4.164-7.2-4.162-7.2-4.164zM4.178 18.676l5.768-3.33V8.684l-5.768 3.33v6.662zm7.21-2.498l-7.2 4.164v8.326l7.21 4.162L18.6 37l7.21-4.164 7.2-4.162v-8.332l-7.2 4.162-3.6 2.082-3.61 2.082-3.6-2.082-3.6-2.082v-8.326h-.012z" clip-rule="evenodd"/>
    <path fill="#F58220" fill-rule="evenodd" d="M21.898 1.154l5.834 3.368c1.774 1.024 4.314 2.416 5.8 3.2 2.42 1.278 3.344 2.79 3.332 5.878v6.738c0 2.048.066 4.942.126 6.618.054 1.476-.166 2.6-.8 3.576l-3.2-1.858h.018v-8.332l-7.2 4.154-7.16-4.172-.034-8.29 3.586 2.062 3.6 2.082 7.2-4.164-7.2-4.162-7.2-4.164L18.584 0c1.016.048 2.06.426 3.314 1.154z" clip-rule="evenodd"/>
    <path fill="#B54625" fill-rule="evenodd" d="M36.254 30.44c-.538.874-1.4 1.614-2.688 2.35l-5.834 3.37c-1.774 1.024-4.248 2.528-5.67 3.418-2.324 1.456-4.09 1.504-6.76-.05L9.466 36.16c-1.774-1.024-4.314-2.416-5.8-3.2-1.324-.702-2.2-1.47-2.722-2.524L4.178 28.6v.078l7.21 4.162L18.6 37l7.21-4.164 7.2-4.162V28.6l3.234 1.85.01-.01zM18.6 20.342l-7.212 4.124v.038l3.6 2.082 3.6 2.082 3.6-2.082 3.6-2.082.034-.02-7.222-4.142z" clip-rule="evenodd"/>
    <path fill="#BCBEC0" fill-rule="evenodd" d="M4.178 18.676l5.768-3.33V8.684l-5.768 3.33v6.662z" clip-rule="evenodd"/>
    <path fill="#939598" fill-rule="evenodd" d="M4.178 18.676l5.768-3.33V8.684l-5.768 9.992z" clip-rule="evenodd"/>
    <path fill="#231F20" d="M46.468 11.468H48.67400000000001V29.052H46.468z"/>
    <path fill="#231F20" fill-rule="evenodd" d="M55.28 29.052V11.566h1.142l11.35 13.068V11.566h2.174v17.486h-1.11L57.454 15.984v13.068H55.28zM76.514 29.052V11.566H90.27v2.01H78.688v5.126h7.006v2.012h-7.006v8.338h-2.174zM96 19.352h7.722c1.098 0 1.932-.244 2.494-.73.562-.486.848-1.2.848-2.136 0-.936-.28-1.634-.848-2.142s-1.358-.768-2.386-.768H96v5.776zm-2.172 9.7V11.566h10.036c1.708 0 3.047.43 4.016 1.292.969.861 1.455 2.05 1.456 3.568.061 2.453-1.711 4.568-4.136 4.938l4.368 7.688h-2.4L102.8 21.4H96v7.656l-2.172-.004zM116.508 22.304h7.692l-3.858-7.744-3.834 7.744zm-5.64 6.748l8.57-17.486h1.8l8.668 17.486h-2.356l-2.374-4.704h-9.664l-2.312 4.704h-2.332zM147.868 23.472l1.752 1.298c-.744 1.46-1.888 2.677-3.298 3.51-1.444.83-3.086 1.255-4.752 1.226-2.619 0-4.782-.863-6.49-2.59-1.708-1.727-2.561-3.917-2.558-6.57 0-2.667.855-4.86 2.564-6.58 1.709-1.72 3.869-2.583 6.478-2.59 1.54-.02 3.06.345 4.424 1.06 1.328.708 2.446 1.752 3.244 3.028l-1.822 1.298c-.535-1.032-1.361-1.886-2.374-2.456-1.057-.595-2.253-.9-3.466-.886-1.964 0-3.59.674-4.878 2.022-1.288 1.348-1.931 3.05-1.93 5.104 0 2.06.643 3.762 1.93 5.106 1.287 1.344 2.913 2.01 4.878 2 1.291.022 2.56-.33 3.654-1.016 1.125-.74 2.037-1.762 2.644-2.964zM154.864 29.052V11.566h2.174v15.476h11.42v2.01h-13.594zM179.526 27.462c1.963 0 3.59-.667 4.882-2 1.292-1.333 1.935-3.035 1.93-5.106 0-2.064-.642-3.774-1.924-5.114-1.282-1.34-2.914-2.022-4.888-2.022-1.974 0-3.6.676-4.884 2.022-1.284 1.346-1.93 3.05-1.93 5.104 0 2.054.644 3.764 1.93 5.106s2.92 2 4.884 2v.01zm0 2.044c-2.623 0-4.785-.863-6.488-2.59-1.703-1.727-2.555-3.917-2.558-6.57 0-2.667.856-4.86 2.568-6.58 1.712-1.72 3.869-2.583 6.472-2.59 2.619 0 4.789.867 6.51 2.6s2.581 3.923 2.58 6.57c0 2.656-.858 4.846-2.574 6.57-1.716 1.724-3.888 2.587-6.516 2.59h.006zM195.502 11.566v11.322c0 1.812.341 3.029 1.022 3.65.682.616 2.018.924 4.018.924s3.33-.308 4-.924c.67-.616 1.012-1.838 1.012-3.65V11.566h2.174v11.906c0 2.152-.558 3.697-1.676 4.634-1.117.937-2.959 1.404-5.526 1.4-2.564 0-4.406-.467-5.528-1.4-1.121-.933-1.68-2.478-1.676-4.634V11.566h2.18zM221.424 13.576h-5.326V27.04h5.326c2.152 0 3.85-.6 5.082-1.8 1.232-1.2 1.856-2.844 1.856-4.904 0-2.028-.63-3.66-1.888-4.894-1.254-1.238-2.942-1.856-5.05-1.856v-.01zm0-2c2.752 0 4.968.813 6.65 2.438 1.681 1.625 2.523 3.74 2.526 6.344 0 2.628-.828 4.735-2.482 6.32-1.655 1.585-3.886 2.377-6.694 2.374h-7.5V11.566l7.5.01z" clip-rule="evenodd"/>
</svg>
