<svg width="176" height="43" xmlns="http://www.w3.org/2000/svg" fill="none" xmlnsV="https://vecta.io/nano"
    viewBox="0 0 176 43">
    <path
      d="M30.513.779c.006-.724.54-.993 1.187-.596l10.19 6.241c.647.397.642 1.037-.013 1.423l-10.28 6.06c-.655.386-1.186.109-1.18-.615L30.513.779z"
      fill="#e32235"></path>
    <path
      d="M45.753 13.813c.65-.392 1.183-.121 1.183.604v12.595c0 .725-.537 1.004-1.194.621l-10.449-6.098c-.657-.383-.661-1.018-.011-1.41l10.471-6.312z"
      fill="#444"></path>
    <path
      d="M30.316 27.918c0-.724.531-.995 1.18-.601l10.388 6.305c.649.394.644 1.031-.011 1.417L31.508 41.13c-.655.385-1.192.108-1.192-.617V27.918z"
      fill="#e32235"></path>
    <path
      d="M20.791 5.871c1.577-1.049 2.862-.426 2.857 1.385l-.075 26.836c-.005 1.811-1.306 2.443-2.891 1.405L1.193 22.726c-1.585-1.039-1.592-2.747-.015-3.796L20.791 5.871z"
      fill="#444"></path>
    <path
      d="M125.105 4.982h4.221l4.132 17.04 4.396-17.287 4.309.165-6.682 24.12h-4.309l-6.067-24.038zm19.079-.082h14.683v3.951h-10.111v6.01h7.825v4.116h-7.737v6.01h10.023v3.951h-14.683V4.9zm21.367 8.809l10.199 3.238.059 7.903s-.234 3.622-3.987 3.896h-6.33s-3.635.11-4.103-3.402v-3.677h4.103v1.866s.176 1.701 1.876 1.701h2.755s1.524-.165 1.583-1.482v-4.171l-10.259-3.183-.176-7.793s.411-3.402 4.572-3.842h6.097s3.576.494 3.81 3.732v3.622h-4.044v-1.811s-.059-1.427-1.525-1.537l-3.107-.165s-1.641-.164-1.641 1.866l.118 3.238zM58.721 4.818h4.66V15.19l6.682-10.372 4.66.082-6.77 11.031 7.21 13.089h-4.836l-5.539-9.385-1.407 2.552v6.75h-4.836l.176-24.12zm55.57.163h4.221V24.82h8.441v4.116h-12.838l.176-23.955zm-31.859 8.728l10.199 3.238.058 7.903s-.234 3.622-3.986 3.896h-6.331s-3.634.11-4.103-3.402v-3.677h4.103v1.866s.175 1.701 1.876 1.701h2.755s1.524-.165 1.583-1.482v-4.171l-10.258-3.183-.176-7.793s.411-3.402 4.572-3.842h6.096s3.576.494 3.81 3.732v3.622h-4.044v-1.811s-.059-1.427-1.525-1.537l-3.106-.165s-1.641-.164-1.641 1.866l.118 3.238zM106.123 4.9h-5.648c-2.515 0-4.573 1.926-4.573 4.281v15.394c0 2.354 2.058 4.281 4.573 4.281h5.648c2.515 0 4.572-1.926 4.572-4.281V9.18c0-2.354-2.057-4.281-4.572-4.281zm.341 18.876c0 .724-.633 1.317-1.407 1.317h-3.253c-.774 0-1.407-.593-1.407-1.317V10.309c0-.724.633-1.317 1.407-1.317h3.253c.774 0 1.407.593 1.407 1.317v13.467z"
      fill="#e32235"></path>
    <path
      d="M61.462 36.467H58.36v2.694h3.457v.809H57.33v-7.471h4.309v.809H58.36v2.361h3.101v.798zm1.656-.407l-.047-1.452h.911l.048.865h.035c.32-.51.853-.987 1.8-.987.781 0 1.373.443 1.622 1.075h.024c.178-.3.403-.532.639-.699.344-.244.722-.377 1.267-.377.758 0 1.882.466 1.882 2.328v3.159H70.28v-3.037c0-1.031-.403-1.652-1.243-1.652-.592 0-1.053.41-1.231.887a1.52 1.52 0 0 0-.083.488v3.314h-1.018v-3.214c0-.853-.402-1.474-1.196-1.474-.651 0-1.125.488-1.29.975a1.27 1.27 0 0 0-.083.477v3.237h-1.018V36.06zm10.455 1.408c.024 1.319.923 1.862 1.965 1.862.746 0 1.196-.122 1.587-.277l.178.698c-.367.155-.995.344-1.906.344-1.764 0-2.817-1.097-2.817-2.716s1.018-2.893 2.687-2.893c1.871 0 2.368 1.541 2.368 2.527 0 .2-.024.355-.035.455h-4.025zm3.054-.698c.012-.621-.272-1.585-1.444-1.585-1.054 0-1.515.909-1.598 1.585h3.043zm2.298-.488l-.047-1.674h.911l.036 1.053h.047c.26-.721.888-1.175 1.586-1.175a1.18 1.18 0 0 1 .296.033v.92a1.68 1.68 0 0 0-.355-.033c-.734 0-1.255.521-1.397 1.253a2.56 2.56 0 0 0-.048.454v2.86h-1.03v-3.691zm8.666 2.915c0 1.23-.261 1.984-.817 2.45-.556.488-1.361.643-2.084.643-.687 0-1.445-.155-1.906-.443l.261-.743c.379.222.971.421 1.681.421 1.066 0 1.847-.521 1.847-1.873v-.599h-.024c-.32.499-.935.898-1.823.898-1.421 0-2.439-1.131-2.439-2.616 0-1.818 1.267-2.849 2.581-2.849.995 0 1.539.488 1.788.931h.024l.047-.81h.912l-.047 1.474v3.114h0zm-1.03-2.472c0-.166-.012-.31-.059-.443-.189-.565-.698-1.031-1.456-1.031-.995 0-1.705.787-1.705 2.029 0 1.053.568 1.928 1.693 1.928.639 0 1.22-.377 1.444-.997.059-.167.083-.355.083-.521v-.965h0zm3.849-3.627c.012.332-.249.598-.663.598-.367 0-.628-.266-.628-.598 0-.344.272-.61.651-.61.391 0 .639.266.639.61zm-1.16 6.872v-5.365h1.042v5.365H89.25zm2.77-3.91l-.047-1.452h.923l.059.887h.024c.284-.51.947-1.009 1.894-1.009.793 0 2.024.443 2.024 2.283v3.203h-1.042V36.88c0-.865-.343-1.585-1.326-1.585a1.47 1.47 0 0 0-1.397.998 1.32 1.32 0 0 0-.071.455v3.225H92.02V36.06zm11.46 3.137c0 1.23-.261 1.984-.817 2.45-.557.488-1.362.643-2.084.643-.687 0-1.444-.155-1.906-.443l.26-.743c.379.222.971.421 1.681.421 1.066 0 1.847-.521 1.847-1.873v-.599h-.023c-.32.499-.935.898-1.823.898-1.421 0-2.439-1.131-2.439-2.616 0-1.818 1.267-2.849 2.58-2.849.995 0 1.54.488 1.788.931h.024l.048-.81h.911l-.047 1.474v3.114zm-1.03-2.472c0-.166-.012-.31-.059-.443a1.49 1.49 0 0 0-1.457-1.031c-.994 0-1.704.787-1.704 2.029 0 1.053.568 1.928 1.694 1.928.639 0 1.219-.377 1.444-.997.059-.167.083-.355.083-.521v-.965h0zm6.595.895l-.829 2.35h-1.066l2.712-7.471h1.243l2.722 7.471h-1.1l-.853-2.35h-2.829zm2.616-.753l-.781-2.15c-.178-.488-.296-.931-.414-1.363h-.024l-.403 1.352-.781 2.161h2.403 0zm3.269-4.764h1.042v3.347h.023c.166-.277.427-.521.746-.687a2.26 2.26 0 0 1 1.065-.277c.77 0 2.001.443 2.001 2.294v3.192h-1.042v-3.081c0-.865-.343-1.596-1.325-1.596a1.49 1.49 0 0 0-1.397.975c-.06.133-.071.277-.071.465v3.237h-1.042v-7.87h0zm7.15 5.365c.024 1.319.924 1.862 1.965 1.862.747 0 1.196-.122 1.587-.277l.177.698c-.367.155-.993.344-1.905.344-1.764 0-2.818-1.097-2.818-2.716s1.018-2.893 2.687-2.893c1.871 0 2.368 1.541 2.368 2.527 0 .2-.024.355-.036.455h-4.025zm3.055-.698c.012-.621-.272-1.585-1.445-1.585-1.053 0-1.515.909-1.598 1.585h3.043zm6.321 1.917c0 .466.023.92.094 1.286h-.947l-.083-.676h-.036c-.319.421-.934.798-1.751.798-1.161 0-1.753-.765-1.753-1.541 0-1.297 1.231-2.006 3.445-1.995v-.111c0-.444-.13-1.242-1.302-1.242a3 3 0 0 0-1.492.399l-.237-.643c.474-.288 1.16-.477 1.883-.477 1.752 0 2.178 1.12 2.178 2.195v2.006h.001zm-1.007-1.452c-1.136-.022-2.426.166-2.426 1.209 0 .632.449.93.981.93.747 0 1.22-.443 1.386-.898a.97.97 0 0 0 .059-.31v-.931h0zm7.636-5.132v6.484l.048 1.385h-.935l-.047-.931h-.024c-.32.599-1.019 1.053-1.953 1.053-1.386 0-2.451-1.097-2.451-2.727-.012-1.785 1.172-2.882 2.569-2.882.875 0 1.468.388 1.728.82h.024v-3.203h1.041 0zm-1.041 4.689a1.64 1.64 0 0 0-.047-.41c-.154-.621-.723-1.131-1.504-1.131-1.077 0-1.717.887-1.717 2.073 0 1.086.569 1.984 1.694 1.984.697 0 1.337-.432 1.527-1.164a1.61 1.61 0 0 0 .047-.421v-.931zm6.606.828l-.829 2.35h-1.065l2.711-7.471h1.243l2.722 7.471h-1.1l-.853-2.35h-2.829zm2.616-.753l-.781-2.15c-.178-.488-.296-.931-.415-1.363h-.023l-.403 1.352-.781 2.161h2.403 0zm3.269-4.764h1.042v7.87h-1.042v-7.87zm3.209 2.505l.757 2.727.426 1.707h.036c.13-.543.32-1.119.509-1.707l.935-2.727h.876l.888 2.682.509 1.751h.036c.095-.543.248-1.108.438-1.74l.817-2.693H160l-1.846 5.365h-.947l-.876-2.56-.509-1.762h-.024c-.142.643-.319 1.197-.521 1.773l-.924 2.55h-.946l-1.729-5.365h1.066 0zm12.278 4.079c0 .466.024.92.094 1.286h-.946l-.083-.676h-.036c-.32.421-.935.798-1.752.798-1.16 0-1.752-.765-1.752-1.541 0-1.297 1.231-2.006 3.445-1.995v-.111c0-.444-.13-1.242-1.303-1.242a3 3 0 0 0-1.491.399l-.237-.643c.474-.288 1.16-.477 1.882-.477 1.752 0 2.179 1.12 2.179 2.195v2.006h0zm-1.006-1.452c-1.137-.022-2.427.166-2.427 1.209 0 .632.449.93.982.93.746 0 1.22-.443 1.385-.898.036-.1.06-.21.06-.31v-.931h0zm2.97-2.626l1.255 3.17.367 1.098h.024l.367-1.12 1.136-3.148h1.101l-1.563 3.824c-.745 1.84-1.255 2.782-1.965 3.359-.509.421-1.018.588-1.278.632l-.261-.82a2.82 2.82 0 0 0 .912-.477c.284-.211.639-.587.876-1.086.048-.1.083-.177.083-.233a.82.82 0 0 0-.071-.255l-2.119-4.943h1.136 0zm4.987 4.366c.308.188.853.388 1.373.388.758 0 1.113-.355 1.113-.798 0-.465-.296-.72-1.065-.986-1.03-.344-1.516-.876-1.516-1.519 0-.864.746-1.574 1.977-1.574.581 0 1.09.155 1.409.333l-.26.709a2.34 2.34 0 0 0-1.172-.31c-.615 0-.959.332-.959.731 0 .443.344.643 1.089.909.994.355 1.504.82 1.504 1.618 0 .942-.781 1.618-2.143 1.618-.628 0-1.208-.155-1.61-.377l.26-.742z"
      fill="#444"></path>
  </svg>