<?xml version="1.0" encoding="UTF-8"?>
<svg id="Layer_2" data-name="Layer 2" xmlns="http://www.w3.org/2000/svg" viewBox="0 0 166.34 34.1">
  <defs>
    <style>
      .cls-1, .cls-2 {
        stroke-width: 0px;
      }

      .cls-2 {
        fill: #ac3939;
      }
    </style>
  </defs>
  <g id="Layer_1-2" data-name="Layer 1">
    <g>
      <g>
        <path class="cls-1" d="m67.8,26.55c-1.84,0-3.46-.4-4.86-1.2-1.4-.8-2.51-1.91-3.32-3.34-.81-1.43-1.21-3.06-1.21-4.9s.4-3.47,1.21-4.9c.81-1.43,1.92-2.54,3.32-3.34,1.4-.8,3.02-1.2,4.86-1.2,2.3,0,4.23.6,5.8,1.79,1.57,1.2,2.58,2.85,3.01,4.95h-4.9c-.24-.87-.72-1.55-1.43-2.05-.71-.5-1.55-.74-2.52-.74-1.28,0-2.37.48-3.26,1.45-.89.97-1.34,2.31-1.34,4.03s.45,3.06,1.34,4.03,1.98,1.45,3.26,1.45c.97,0,1.81-.24,2.52-.73.71-.48,1.19-1.17,1.43-2.07h4.9c-.43,2.03-1.44,3.66-3.01,4.9s-3.51,1.85-5.8,1.85Z"/>
        <path class="cls-1" d="m86.76,26.55c-1.81,0-3.42-.39-4.82-1.16s-2.5-1.86-3.3-3.26-1.2-3.02-1.2-4.86.39-3.52,1.18-4.97c.79-1.45,1.87-2.58,3.26-3.39,1.39-.81,3.03-1.21,4.91-1.21,1.76,0,3.32.39,4.68,1.16,1.35.77,2.41,1.83,3.17,3.17.76,1.34,1.14,2.83,1.14,4.48,0,.27,0,.54-.02.83-.01.29-.03.59-.05.91h-13.67c.1,1.4.59,2.5,1.47,3.3.88.8,1.95,1.2,3.21,1.2.94,0,1.74-.21,2.38-.63s1.12-.97,1.43-1.65h4.72c-.34,1.14-.9,2.17-1.69,3.1-.79.93-1.75,1.66-2.9,2.19-1.15.53-2.45.8-3.9.8h0Zm.04-15.09c-1.14,0-2.14.32-3.01.96-.87.64-1.43,1.61-1.67,2.92h8.96c-.07-1.18-.51-2.13-1.31-2.83s-1.79-1.05-2.97-1.05Z"/>
        <path class="cls-1" d="m105.26,26.55c-1.69,0-3.2-.41-4.53-1.23-1.33-.82-2.38-1.95-3.16-3.37-.77-1.43-1.16-3.05-1.16-4.86s.39-3.43,1.16-4.84,1.82-2.53,3.16-3.34c1.33-.81,2.84-1.21,4.53-1.21,1.35,0,2.54.25,3.55.76,1.02.51,1.84,1.22,2.47,2.14V0h4.64v26.12h-4.13l-.51-2.57c-.58.8-1.35,1.5-2.3,2.1-.96.6-2.19.91-3.72.91h0Zm.98-4.06c1.5,0,2.73-.5,3.68-1.51.96-1,1.43-2.29,1.43-3.86s-.48-2.86-1.43-3.86c-.96-1-2.18-1.51-3.68-1.51s-2.7.5-3.66,1.49-1.45,2.27-1.45,3.84.48,2.87,1.45,3.88c.97,1.01,2.19,1.52,3.66,1.52h0Z"/>
        <path class="cls-1" d="m124.67,26.55c-2.25,0-3.98-.7-5.2-2.1-1.22-1.4-1.83-3.46-1.83-6.16v-10.16h4.61v9.72c0,1.55.31,2.73.94,3.55.63.82,1.62,1.23,2.97,1.23,1.28,0,2.34-.46,3.17-1.38.83-.92,1.25-2.2,1.25-3.84v-9.28h4.64v17.99h-4.1l-.36-3.05c-.56,1.06-1.36,1.91-2.41,2.54-1.05.63-2.28.94-3.68.94h0Z"/>
        <path class="cls-1" d="m137.25,26.12V8.12h4.14l.43,3.37c.65-1.16,1.54-2.09,2.67-2.77,1.13-.69,2.45-1.03,3.97-1.03v4.9h-1.31c-1.02,0-1.92.16-2.72.47-.8.31-1.42.86-1.87,1.63-.45.77-.67,1.85-.67,3.23v8.2h-4.64Z"/>
        <path class="cls-1" d="m157.31,26.55c-1.81,0-3.42-.39-4.82-1.16s-2.5-1.86-3.3-3.26-1.2-3.02-1.2-4.86.39-3.52,1.18-4.97c.79-1.45,1.87-2.58,3.26-3.39,1.39-.81,3.03-1.21,4.91-1.21,1.76,0,3.32.39,4.68,1.16,1.35.77,2.41,1.83,3.17,3.17s1.14,2.83,1.14,4.48c0,.27,0,.54-.02.83-.01.29-.03.59-.05.91h-13.67c.1,1.4.59,2.5,1.47,3.3.88.8,1.95,1.2,3.21,1.2.94,0,1.74-.21,2.38-.63s1.12-.97,1.43-1.65h4.72c-.34,1.14-.9,2.17-1.69,3.1-.79.93-1.75,1.66-2.9,2.19s-2.45.8-3.9.8h0Zm.04-15.09c-1.14,0-2.14.32-3.01.96-.87.64-1.43,1.61-1.67,2.92h8.96c-.07-1.18-.51-2.13-1.31-2.83s-1.79-1.05-2.97-1.05Z"/>
      </g>
      <circle class="cls-2" cx="54.1" cy="25.72" r="4.89"/>
      <g>
        <path class="cls-1" d="m0,34.09V8.12h4.14l.51,2.58c.58-.8,1.35-1.5,2.3-2.1s2.19-.91,3.72-.91c1.69,0,3.2.41,4.53,1.23s2.38,1.95,3.16,3.37c.77,1.43,1.16,3.05,1.16,4.86s-.39,3.43-1.16,4.84-1.83,2.53-3.16,3.34c-1.33.81-2.84,1.21-4.53,1.21-1.36,0-2.54-.25-3.55-.76-1.02-.51-1.84-1.22-2.47-2.14v10.45H0Zm9.68-11.61c1.47,0,2.7-.5,3.66-1.49.97-.99,1.45-2.27,1.45-3.84s-.48-2.87-1.45-3.88c-.97-1.02-2.19-1.52-3.66-1.52s-2.73.5-3.68,1.51c-.96,1-1.43,2.29-1.43,3.86s.48,2.86,1.43,3.86c.96,1,2.18,1.51,3.68,1.51Z"/>
        <path class="cls-1" d="m20.93,26.12V8.12h4.14l.43,3.37c.65-1.16,1.54-2.09,2.67-2.77,1.13-.69,2.45-1.03,3.97-1.03v4.9h-1.31c-1.02,0-1.92.16-2.72.47-.8.31-1.42.86-1.87,1.63-.45.77-.67,1.85-.67,3.23v8.2h-4.64Z"/>
        <path class="cls-1" d="m40.88,26.55c-1.74,0-3.31-.4-4.7-1.2-1.39-.8-2.49-1.91-3.3-3.32-.81-1.41-1.21-3.05-1.21-4.91s.41-3.5,1.23-4.91c.82-1.41,1.93-2.52,3.32-3.32,1.39-.8,2.96-1.2,4.7-1.2s3.27.4,4.66,1.2c1.39.8,2.49,1.91,3.3,3.32.81,1.41,1.21,3.05,1.21,4.91s-.41,3.5-1.21,4.91c-.81,1.41-1.92,2.52-3.32,3.32-1.4.8-2.96,1.2-4.68,1.2h0Zm0-4.03c1.21,0,2.26-.45,3.16-1.36.89-.91,1.34-2.25,1.34-4.04s-.45-3.14-1.34-4.04c-.89-.91-1.94-1.36-3.12-1.36s-2.29.45-3.17,1.36c-.88.91-1.32,2.25-1.32,4.04s.44,3.14,1.32,4.04c.88.91,1.93,1.36,3.14,1.36Z"/>
      </g>
    </g>
  </g>
</svg>